<?xml version="1.0" encoding="UTF-8"?>
<svg id="Layer_1" xmlns="http://www.w3.org/2000/svg" xmlns:xlink="http://www.w3.org/1999/xlink" version="1.1" viewBox="0 0 24 24">
  <!-- Generator: Adobe Illustrator 29.8.1, SVG Export Plug-In . SVG Version: 2.1.1 Build 2)  -->
  <defs>
    <style>
      .st0 {
        fill: url(#linear-gradient1);
      }

      .st1 {
        fill: url(#linear-gradient);
      }
    </style>
    <linearGradient id="linear-gradient" x1="9.22" y1="18.1" x2="9.22" y2="6.53" gradientUnits="userSpaceOnUse">
      <stop offset="0" stop-color="#c2f8bd"/>
      <stop offset="1" stop-color="#0ac8b5"/>
    </linearGradient>
    <linearGradient id="linear-gradient1" x1="14.49" y1="19.26" x2="14.49" y2="4.74" xlink:href="#linear-gradient"/>
  </defs>
  <path class="st1" d="M14.39,14.09s0,.04-.01.06c-.05.2-.1.4-.14.6-.04.19-.09.38-.13.58-.03.12-.06.23-.09.35-.01.04-.03.09-.04.13-.03-.06-.07-.11-.1-.17-.05-.08-.09-.16-.14-.24-.08-.16-.17-.31-.25-.47-.1-.18-.2-.37-.3-.56,0-.01,0-.03-.01-.04,0,0-.02,0-.02-.02-.1-.19-.2-.38-.3-.57,0,0,0,0,0,0-.04-.06-.07-.11-.1-.17-.07-.13-.13-.26-.2-.39-.03-.06-.07-.11-.1-.17-.06-.1-.12-.2-.18-.29,0,0,0-.02,0-.03-.06-.09-.12-.18-.18-.28-.01-.02-.01-.04-.02-.06-.05-.09-.11-.17-.17-.26-.03-.04-.05-.09-.08-.14-.13.22-.26.42-.38.63-.13.22-.26.44-.39.66-.02.04-.05.07-.07.1-.07.12-.13.23-.2.35-.08.13-.15.25-.23.38-.06.1-.12.21-.18.31-.08.14-.17.28-.25.42-.14.24-.29.48-.43.73-.12.2-.24.4-.36.6-.08.12-.15.25-.23.37-.05.1-.11.19-.16.29-.01.03-.03.05-.05.08-.15.25-.29.49-.44.74-.1.17-.25.29-.42.39-.1.06-.22.09-.34.11-.1.01-.2.03-.3.02-.13-.02-.26-.05-.38-.13-.14-.09-.25-.2-.35-.33-.1-.15-.16-.31-.2-.48-.02-.09-.05-.19-.07-.28,0-.01,0-.03,0-.04,0,0-.02-.01-.02-.02-.02-.11-.04-.21-.06-.32.02-.02,0-.03-.01-.04,0-.01,0-.03,0-.04.02-.02,0-.03-.01-.04,0-.01,0-.03,0-.04-.02-.05-.03-.1-.05-.15-.02-.07-.03-.15-.04-.22.02-.02,0-.03-.02-.04,0-.01,0-.03,0-.04.02-.02,0-.03-.02-.04,0-.01,0-.03,0-.04.02-.02,0-.03-.02-.04,0-.01,0-.03,0-.04-.04-.05-.04-.11-.05-.17-.04-.12-.05-.25-.08-.37-.03-.11-.06-.21-.08-.32-.02-.07-.03-.13-.05-.2,0-.03,0-.05-.01-.08-.01-.03-.03-.06-.03-.09-.03-.15-.06-.3-.09-.44,0-.02,0-.03,0-.05-.04-.16-.08-.31-.11-.47-.04-.15-.07-.3-.11-.45-.04-.18-.09-.36-.13-.54-.05-.19-.09-.39-.14-.58-.04-.19-.09-.37-.13-.56,0-.02-.02-.05-.02-.07-.34-1.41-.67-2.82-1.01-4.22,0,0,0-.01,0-.02,0-.13,0-.26.07-.38h0s.07-.08.1-.11h0c.12-.08.26-.11.4-.1.75,0,1.5,0,2.26,0,.13,0,.25.02.36.08,0,0,0,0,0,0,.02.02.04.03.06.05,0,0,0,0,.01.01.01.02.03.04.04.05.02.04.04.09.06.13.02.06.03.13.05.19.28,1.17.56,2.35.84,3.52.06.25.12.5.17.75.04.15.07.3.11.45.04.17.08.34.12.51.04.19.09.37.13.56,0,.03.02.07.03.1.03.14.07.27.1.41,0,.02,0,.04,0,.05,0,.04,0,.08,0,.12-.02.02-.04.03-.05.05-.08.14-.17.29-.25.44-.02.03-.04.06-.06.09-.04.07-.08.15-.12.22-.09.16-.19.32-.28.49-.02.03-.04.06-.05.09-.01,0-.02,0-.03,0,0-.02-.01-.05-.02-.07-.02-.1-.04-.2-.07-.31-.04-.18-.08-.35-.12-.53-.05-.19-.09-.37-.14-.56-.04-.19-.09-.37-.13-.56-.02-.09-.05-.17-.07-.26-.02-.1-.05-.2-.07-.3-.04-.17-.08-.35-.13-.52-.03-.14-.07-.29-.1-.43,0-.01-.01-.03-.02-.04-.23-.94-.45-1.89-.68-2.83-.03-.13-.06-.26-.11-.38-.08-.21-.28-.34-.48-.32-.23.02-.41.17-.46.39-.03.1-.02.2,0,.3.18.75.36,1.5.54,2.25.06.24.11.48.17.71.04.19.09.37.13.56.04.16.08.32.12.47,0,.03.01.06.02.09.05.19.09.39.14.58.04.14.07.28.1.42,0,0,0,.02,0,.03.04.14.07.28.1.42,0,.01,0,.03,0,.04.04.17.08.35.13.52.04.15.07.29.11.44.01.05.02.11.03.16.05.19.09.39.14.58.04.17.09.35.13.52,0,.01,0,.02,0,.04.03.1.06.21.09.31,0,0,0,.02.01.03.07-.04.07-.13.12-.17.07-.12.14-.24.21-.36.05-.09.09-.17.14-.26.07-.12.14-.24.22-.36.11-.2.23-.4.34-.59.03-.05.06-.09.09-.14.03-.06.06-.12.1-.18.1-.16.19-.31.29-.47.02-.03.03-.05.05-.08.11-.19.22-.37.34-.56.04-.06.07-.12.11-.17.15-.26.31-.51.46-.77.1-.16.19-.32.29-.48.03-.05.07-.1.1-.16.01-.03.02-.06.04-.08.08-.13.15-.26.23-.39.01-.02.03-.03.05-.05.02-.03.03-.06.05-.09.14-.23.27-.46.41-.68.16-.25.39-.37.68-.34.21.02.37.13.49.31.14.22.27.45.41.67.02.04.04.08.06.12.03.04.06.08.08.12.08.13.15.26.22.39.08.14.17.29.25.43.06.11.12.21.18.32.09.16.18.32.26.49.08.15.16.3.24.45.01.02.02.05.03.07.02.04.05.09.07.13.04.08.09.16.13.24.01.02.03.04.04.06.01.01.03.02.04.04Z"/>
  <path class="st0" d="M19.92,5.42c-.07.31-.15.62-.22.93-.1.4-.19.81-.29,1.21-.22.92-.44,1.84-.66,2.76-.12.49-.23.98-.35,1.47-.08.35-.17.69-.25,1.04-.04.17-.08.34-.12.5-.04.16-.07.31-.11.47-.04.16-.08.32-.11.49-.05.19-.09.39-.14.58-.05.23-.11.46-.16.7,0,0,0,0-.01.01-.02.1-.04.2-.06.29-.03.14-.07.29-.11.43-.05.21-.1.41-.14.62,0,.01-.01.02-.02.03-.03.15-.06.29-.1.44,0,.04-.02.07-.03.11-.04.21-.13.38-.3.5-.1.07-.22.08-.33.08-.21,0-.36-.1-.47-.28,0,0-.01-.01-.02-.02,0-.02-.01-.03-.02-.05,0-.04-.02-.08-.02-.12,0-.03,0-.07,0-.1-.01-.14,0-.28.06-.41,0-.03.01-.06.02-.09.04-.18.08-.36.13-.54,0-.02.01-.04.02-.06.02,0,.03-.01.01-.04,0-.01,0-.03,0-.04.04-.17.08-.35.13-.52,0,0,0-.01.01-.02,0-.02,0-.04,0-.06,0,0,0-.01.01-.02,0-.02,0-.04,0-.06,0,0,0-.01.01-.02,0-.02,0-.04,0-.06.04-.15.07-.3.11-.45,0,0,0-.01.01-.02,0-.02,0-.04,0-.06,0,0,0-.01.01-.02,0-.02,0-.04,0-.06,0,0,0-.01.01-.02,0-.02,0-.04,0-.06,0,0,0-.01.01-.02h0c.03-.13.06-.25.08-.38.02-.07.04-.15.06-.22.02-.1.04-.2.07-.3.01-.06.03-.11.05-.16.01-.06.02-.13.03-.19.02-.1.05-.2.07-.3,0,0,0,0,.01,0,.02-.1.04-.2.07-.3.01-.06.03-.12.04-.18.11-.45.21-.91.32-1.36.12-.5.24-1,.36-1.49.12-.5.24-1,.36-1.49.05-.22.11-.44.16-.66,0-.01,0-.02.01-.03.05-.19.01-.37-.11-.51-.09-.11-.22-.16-.35-.17-.17-.01-.32.05-.42.21-.04.06-.07.12-.09.19-.08.32-.16.64-.24.96-.15.61-.29,1.22-.44,1.84-.15.61-.29,1.23-.44,1.84-.06.24-.11.48-.17.72,0,0,0,.02-.01.02-.04.19-.08.38-.13.57,0,.01-.01.02-.02.03-.02.08-.03.17-.05.25-.03.14-.07.28-.1.42-.05.21-.1.41-.15.62-.04.19-.09.37-.13.56-.05.2-.1.4-.14.6-.05.22-.11.45-.16.67-.05.23-.11.46-.16.7,0,0,0,0-.01.01-.03.12-.05.24-.08.37-.03.11-.06.22-.08.33-.03.14-.06.28-.1.43,0,.04-.02.08-.03.12-.03.16-.06.33-.16.47-.06.09-.14.17-.25.22-.01,0-.02.01-.03.02-.06,0-.12.01-.19.02-.11,0-.2-.04-.29-.11-.1-.08-.17-.18-.22-.29-.04-.08-.1-.16-.16-.24,0-.02-.01-.03-.02-.05-.07-.11-.15-.21-.22-.32-.04-.06-.08-.13-.12-.2-.08-.12-.17-.25-.25-.37-.06-.09-.12-.19-.17-.28-.01-.02-.02-.05-.02-.07-.03-.04-.06-.07-.08-.11-.07-.11-.14-.23-.21-.35-.04-.06-.07-.13-.1-.19-.06-.1-.12-.19-.18-.29-.03-.05-.06-.09-.1-.15-.07.1-.13.2-.19.3-.1.17-.2.34-.3.5-.13.23-.27.45-.4.68-.13.22-.27.45-.4.67-.12.2-.24.41-.36.61-.07.12-.19.19-.31.24-.03.01-.06.01-.1,0-.09,0-.18-.01-.27-.02-.21-.08-.34-.24-.39-.46-.02-.1-.02-.22.01-.33,0,0,0-.01.01-.02,0-.01,0-.03,0-.04.04-.07.07-.13.11-.2.07-.11.13-.23.2-.34.03-.05.06-.1.1-.16.04-.07.08-.14.12-.21.1-.16.2-.32.29-.48.09-.15.17-.3.26-.45,0-.01.02-.02.04-.03.05-.09.1-.18.15-.27.02-.04.05-.09.08-.13.01-.02.03-.03.04-.04.02-.04.04-.09.06-.13.09-.15.18-.29.26-.44,0,0,.01,0,.01,0,.11-.19.23-.38.34-.57.02-.03.05-.07.07-.1.05-.09.1-.19.16-.28.08-.14.17-.28.25-.42.02-.03.03-.05.04-.08.04-.05.07-.09.11-.14.04.06.08.11.11.16.05.09.11.19.16.28.09.15.18.3.27.46.12.2.25.41.37.61.01.02.02.04.03.06.12.19.23.39.35.58.11.19.23.37.34.56.08.13.16.26.25.41.06-.16.08-.31.13-.46.05-.22.1-.44.15-.65,0-.04,0-.08.01-.12.01-.04.03-.08.04-.13.03-.11.06-.23.09-.35.04-.19.09-.38.13-.58.05-.2.1-.4.14-.6,0-.02,0-.04.01-.06.05-.21.1-.41.15-.62.04-.19.08-.37.12-.56,0-.01.01-.03.02-.04.01-.07.03-.15.04-.22.09-.38.18-.77.28-1.15.07-.28.14-.56.21-.84.05-.2.1-.41.14-.62.07-.29.14-.57.21-.86.06-.23.11-.46.17-.69.07-.31.15-.62.22-.93.05-.19.09-.38.14-.58.02-.1.04-.21.07-.31.06-.19.19-.33.36-.43.2-.1.4-.21.6-.32.36-.19.71-.38,1.07-.57.33-.18.67-.36,1-.54.16-.09.34-.1.5,0,.12.06.19.17.23.3.03.11.02.21,0,.32Z"/>
</svg>