<?xml version="1.0" encoding="utf-8"?>
<!-- Generator: Adobe Illustrator 27.6.1, SVG Export Plug-In . SVG Version: 6.00 Build 0)  -->
<svg version="1.1" id="Layer_1" xmlns="http://www.w3.org/2000/svg" xmlns:xlink="http://www.w3.org/1999/xlink" x="0px" y="0px"
	 viewBox="0 0 24 24" style="enable-background:new 0 0 24 24;" xml:space="preserve">
<style type="text/css">
	.st0{clip-path:url(#SVGID_00000092440479465102803060000007495896118203406776_);}
	.st1{fill:#F9F9F9;}
	.st2{fill:none;stroke:#DBDFE9;}
	.st3{fill:url(#SVGID_00000070807467108062811080000000484589294481591428_);}
	.st4{fill:url(#SVGID_00000029761259003207569050000010945435035190906272_);}
</style>
<g>
	<defs>
		<rect id="SVGID_1_" width="24" height="24"/>
	</defs>
	<clipPath id="SVGID_00000021097213777247517250000010448589142005071758_">
		<use xlink:href="#SVGID_1_"  style="overflow:visible;"/>
	</clipPath>
	<g style="clip-path:url(#SVGID_00000021097213777247517250000010448589142005071758_);">
		<path class="st1" d="M23.7,12c0-6.5-5.2-11.7-11.7-11.7C5.5,0.3,0.3,5.5,0.3,12c0,6.5,5.2,11.7,11.7,11.7
			C18.5,23.7,23.7,18.5,23.7,12z"/>
		<path class="st2" d="M23.7,12c0-6.5-5.2-11.7-11.7-11.7C5.5,0.3,0.3,5.5,0.3,12c0,6.5,5.2,11.7,11.7,11.7
			C18.5,23.7,23.7,18.5,23.7,12z"/>
		
			<radialGradient id="SVGID_00000003103543289716231130000000232936224105805501_" cx="-367.2601" cy="60.5924" r="9.5396" gradientTransform="matrix(-1 -4.343010e-03 7.125920e-03 -1.6408 -355.9312 117.9746)" gradientUnits="userSpaceOnUse">
			<stop  offset="0.3144" style="stop-color:#FF9800"/>
			<stop  offset="0.6616" style="stop-color:#FF6D00"/>
			<stop  offset="0.9715" style="stop-color:#F44336"/>
		</radialGradient>
		<path style="fill:url(#SVGID_00000003103543289716231130000000232936224105805501_);" d="M8.2,8.9C8.1,9.7,8,11.1,8.5,11.8
			c0,0-0.2-1.6,1.8-3.6c0.8-0.8,1-1.9,0.7-2.7c-0.2-0.5-0.5-0.9-0.7-1.1c-0.2-0.2,0-0.4,0.2-0.4C11.9,4,14,4.3,14.9,6.6
			c0.4,1,0.4,2.1,0.2,3.1c-0.1,0.7-0.6,2.2,0.4,2.4c0.7,0.1,1-0.4,1.2-0.8c0.1-0.2,0.3-0.2,0.4-0.1c1.2,1.4,1.3,2.9,1,4.3
			c-0.5,2.7-3.2,4.6-5.8,4.6c-3.3,0-6-1.9-6.7-5.4c-0.3-1.4-0.1-4.2,2-6.1C7.9,8.5,8.2,8.6,8.2,8.9z"/>
		
			<radialGradient id="SVGID_00000173119765150751160490000017373748255158046854_" cx="19.6075" cy="-39.0331" r="9.9819" gradientTransform="matrix(-1.010000e-02 0.9999 -0.7525 -7.603780e-03 -16.878 -9.2457)" gradientUnits="userSpaceOnUse">
			<stop  offset="0.2141" style="stop-color:#FFF176"/>
			<stop  offset="0.3275" style="stop-color:#FFF27D"/>
			<stop  offset="0.4868" style="stop-color:#FFF48F"/>
			<stop  offset="0.6722" style="stop-color:#FFF7AD"/>
			<stop  offset="0.7931" style="stop-color:#FFF9C4"/>
			<stop  offset="0.8221" style="stop-color:#FFF8BD;stop-opacity:0.804"/>
			<stop  offset="0.8627" style="stop-color:#FFF6AB;stop-opacity:0.529"/>
			<stop  offset="0.9101" style="stop-color:#FFF38D;stop-opacity:0.2088"/>
			<stop  offset="0.9409" style="stop-color:#FFF176;stop-opacity:0"/>
		</radialGradient>
		<path style="fill:url(#SVGID_00000173119765150751160490000017373748255158046854_);" d="M13.6,13.8c-1.2-1.6-0.7-3.4-0.4-4.1
			c0-0.1-0.1-0.2-0.2-0.1c-0.5,0.4-1.6,1.2-2.1,2.4c-0.7,1.6-0.6,2.4-0.2,3.4c0.2,0.6,0,0.7-0.2,0.7c-0.1,0-0.3-0.1-0.4-0.2
			c-0.3-0.3-0.5-0.6-0.6-1c0-0.1-0.1-0.1-0.2,0c-0.4,0.5-0.6,1.4-0.6,2c0,1.8,1.5,3.3,3.3,3.3c2.3,0,4-2.6,2.7-4.7
			C14.4,14.8,14.1,14.4,13.6,13.8z"/>
	</g>
</g>
</svg>
